<mxfile host="drawio-plugin" modified="2023-04-26T03:47:57.232Z" agent="5.0 (Macintosh; Intel Mac OS X 10_15_7) AppleWebKit/537.36 (KHTML, like Gecko) Chrome/104.0.5112.102 Safari/537.36" etag="I8_Cs9SVmIusT9gv5Ww2" version="20.5.3" type="embed"><diagram id="23iRSUPoRavnBvh4doch" name="Page-1"><mxGraphModel dx="994" dy="854" grid="1" gridSize="10" guides="1" tooltips="1" connect="1" arrows="1" fold="1" page="1" pageScale="1" pageWidth="827" pageHeight="1169" math="0" shadow="0"><root><mxCell id="0"/><mxCell id="1" parent="0"/><mxCell id="2" value="Flow Facebook" style="swimlane;whiteSpace=wrap;html=1;" parent="1" vertex="1"><mxGeometry x="40" y="280" width="1330" height="1620" as="geometry"><mxRectangle x="40" y="280" width="100" height="30" as="alternateBounds"/></mxGeometry></mxCell><mxCell id="3" value="" style="rounded=0;whiteSpace=wrap;html=1;strokeColor=#60A917;strokeWidth=3;" parent="2" vertex="1"><mxGeometry x="270" y="912" width="870" height="380" as="geometry"/></mxCell><mxCell id="4" value="TokenGenerator" style="rounded=1;whiteSpace=wrap;html=1;strokeWidth=3;strokeColor=#6A00FF;" parent="2" vertex="1"><mxGeometry x="310" y="962" width="120" height="60" as="geometry"/></mxCell><mxCell id="5" value="LoadFacebookUserApi" style="rounded=1;whiteSpace=wrap;html=1;strokeWidth=3;strokeColor=#6A00FF;" parent="2" vertex="1"><mxGeometry x="470" y="962" width="150" height="60" as="geometry"/></mxCell><mxCell id="7" value="LoadUserAccountRepo" style="rounded=1;whiteSpace=wrap;html=1;strokeWidth=3;strokeColor=#6A00FF;" parent="2" vertex="1"><mxGeometry x="710" y="962" width="150" height="60" as="geometry"/></mxCell><mxCell id="13" value="SaveFacebookAccountRepository" style="rounded=1;whiteSpace=wrap;html=1;strokeWidth=3;strokeColor=#6A00FF;" parent="2" vertex="1"><mxGeometry x="910" y="962" width="200" height="60" as="geometry"/></mxCell><mxCell id="15" style="edgeStyle=orthogonalEdgeStyle;rounded=0;orthogonalLoop=1;jettySize=auto;html=1;entryX=0.5;entryY=1;entryDx=0;entryDy=0;strokeColor=#1BA1E2;strokeWidth=3;" parent="2" source="14" target="5" edge="1"><mxGeometry relative="1" as="geometry"><Array as="points"><mxPoint x="620" y="1072"/><mxPoint x="545" y="1072"/></Array></mxGeometry></mxCell><mxCell id="16" style="edgeStyle=orthogonalEdgeStyle;rounded=0;orthogonalLoop=1;jettySize=auto;html=1;entryX=0.547;entryY=0.992;entryDx=0;entryDy=0;entryPerimeter=0;strokeColor=#1BA1E2;strokeWidth=3;" parent="2" source="14" target="7" edge="1"><mxGeometry relative="1" as="geometry"><Array as="points"><mxPoint x="730" y="1072"/><mxPoint x="792" y="1072"/></Array></mxGeometry></mxCell><mxCell id="17" style="edgeStyle=orthogonalEdgeStyle;rounded=0;orthogonalLoop=1;jettySize=auto;html=1;entryX=0.5;entryY=1;entryDx=0;entryDy=0;strokeColor=#1BA1E2;strokeWidth=3;" parent="2" source="14" target="4" edge="1"><mxGeometry relative="1" as="geometry"><Array as="points"><mxPoint x="370" y="1140"/></Array></mxGeometry></mxCell><mxCell id="18" style="edgeStyle=orthogonalEdgeStyle;rounded=0;orthogonalLoop=1;jettySize=auto;html=1;entryX=0.5;entryY=1;entryDx=0;entryDy=0;strokeColor=#1BA1E2;strokeWidth=3;" parent="2" source="14" target="13" edge="1"><mxGeometry relative="1" as="geometry"/></mxCell><mxCell id="14" value="FacebookAuthenticationService" style="rounded=1;whiteSpace=wrap;html=1;strokeWidth=3;strokeColor=#1BA1E2;" parent="2" vertex="1"><mxGeometry x="570" y="1122" width="210" height="60" as="geometry"/></mxCell><mxCell id="19" value="Data" style="text;html=1;strokeColor=none;fillColor=none;align=center;verticalAlign=middle;whiteSpace=wrap;rounded=0;strokeWidth=3;" parent="2" vertex="1"><mxGeometry x="1080" y="880" width="60" height="30" as="geometry"/></mxCell><mxCell id="21" value="" style="rounded=0;whiteSpace=wrap;html=1;strokeColor=none;strokeWidth=3;fillColor=#60a917;fontColor=#ffffff;" parent="2" vertex="1"><mxGeometry x="40" y="40" width="40" height="40" as="geometry"/></mxCell><mxCell id="22" value="Layer" style="text;html=1;align=center;verticalAlign=middle;resizable=0;points=[];autosize=1;strokeColor=none;fillColor=none;strokeWidth=3;" parent="2" vertex="1"><mxGeometry x="93" y="44" width="50" height="30" as="geometry"/></mxCell><mxCell id="23" value="" style="rounded=0;whiteSpace=wrap;html=1;strokeColor=none;strokeWidth=3;fillColor=#d80073;fontColor=#ffffff;" parent="2" vertex="1"><mxGeometry x="40" y="100" width="40" height="40" as="geometry"/></mxCell><mxCell id="24" value="Model" style="text;html=1;align=center;verticalAlign=middle;resizable=0;points=[];autosize=1;strokeColor=none;fillColor=none;strokeWidth=3;" parent="2" vertex="1"><mxGeometry x="86" y="105" width="60" height="30" as="geometry"/></mxCell><mxCell id="25" value="" style="rounded=0;whiteSpace=wrap;html=1;strokeColor=none;strokeWidth=3;fillColor=#6a00ff;fontColor=#ffffff;" parent="2" vertex="1"><mxGeometry x="40" y="160" width="40" height="40" as="geometry"/></mxCell><mxCell id="26" value="Interface" style="text;html=1;align=center;verticalAlign=middle;resizable=0;points=[];autosize=1;strokeColor=none;fillColor=none;strokeWidth=3;" parent="2" vertex="1"><mxGeometry x="86" y="165" width="70" height="30" as="geometry"/></mxCell><mxCell id="27" value="" style="rounded=0;whiteSpace=wrap;html=1;strokeColor=none;strokeWidth=3;fillColor=#1ba1e2;fontColor=#ffffff;" parent="2" vertex="1"><mxGeometry x="40" y="220" width="40" height="40" as="geometry"/></mxCell><mxCell id="28" value="Class" style="text;html=1;align=center;verticalAlign=middle;resizable=0;points=[];autosize=1;strokeColor=none;fillColor=none;strokeWidth=3;" parent="2" vertex="1"><mxGeometry x="86" y="225" width="50" height="30" as="geometry"/></mxCell><mxCell id="29" value="" style="rounded=0;whiteSpace=wrap;html=1;strokeColor=none;strokeWidth=3;fillColor=#fa6800;fontColor=#000000;" parent="2" vertex="1"><mxGeometry x="41" y="280" width="40" height="40" as="geometry"/></mxCell><mxCell id="30" value="External Lib" style="text;html=1;align=center;verticalAlign=middle;resizable=0;points=[];autosize=1;strokeColor=none;fillColor=none;strokeWidth=3;" parent="2" vertex="1"><mxGeometry x="86" y="285" width="90" height="30" as="geometry"/></mxCell><mxCell id="31" value="" style="rounded=0;whiteSpace=wrap;html=1;strokeColor=#60A917;strokeWidth=3;" parent="2" vertex="1"><mxGeometry x="270" y="1350" width="870" height="180" as="geometry"/></mxCell><mxCell id="32" value="Domain" style="text;html=1;strokeColor=none;fillColor=none;align=center;verticalAlign=middle;whiteSpace=wrap;rounded=0;strokeWidth=3;" parent="2" vertex="1"><mxGeometry x="1080" y="1310" width="60" height="30" as="geometry"/></mxCell><mxCell id="33" value="FacebookAccount" style="rounded=1;whiteSpace=wrap;html=1;strokeWidth=3;strokeColor=#D80073;" parent="2" vertex="1"><mxGeometry x="311" y="1410" width="120" height="60" as="geometry"/></mxCell><mxCell id="34" value="AccessToken" style="rounded=1;whiteSpace=wrap;html=1;strokeWidth=3;strokeColor=#D80073;" parent="2" vertex="1"><mxGeometry x="460" y="1410" width="90" height="60" as="geometry"/></mxCell><mxCell id="37" style="edgeStyle=orthogonalEdgeStyle;rounded=0;orthogonalLoop=1;jettySize=auto;html=1;entryX=0;entryY=0.5;entryDx=0;entryDy=0;strokeColor=#6A00FF;strokeWidth=3;fillColor=#6a00ff;" parent="2" source="35" target="36" edge="1"><mxGeometry relative="1" as="geometry"/></mxCell><mxCell id="38" style="edgeStyle=orthogonalEdgeStyle;rounded=0;orthogonalLoop=1;jettySize=auto;html=1;entryX=1;entryY=0.5;entryDx=0;entryDy=0;strokeColor=#6A00FF;strokeWidth=3;fillColor=#6a00ff;" parent="2" source="35" target="34" edge="1"><mxGeometry relative="1" as="geometry"/></mxCell><mxCell id="35" value="FacebookAuthentication" style="rounded=1;whiteSpace=wrap;html=1;strokeWidth=3;strokeColor=#6A00FF;" parent="2" vertex="1"><mxGeometry x="600" y="1410" width="150" height="60" as="geometry"/></mxCell><mxCell id="36" value="AuthenticationError" style="rounded=1;whiteSpace=wrap;html=1;strokeWidth=3;strokeColor=#D80073;" parent="2" vertex="1"><mxGeometry x="877" y="1410" width="140" height="60" as="geometry"/></mxCell><mxCell id="39" style="edgeStyle=orthogonalEdgeStyle;rounded=0;orthogonalLoop=1;jettySize=auto;html=1;strokeColor=#1BA1E2;strokeWidth=3;dashed=1;entryX=0.5;entryY=0;entryDx=0;entryDy=0;" parent="2" source="14" target="35" edge="1"><mxGeometry relative="1" as="geometry"><mxPoint x="670" y="1410" as="targetPoint"/><Array as="points"/></mxGeometry></mxCell><mxCell id="40" style="edgeStyle=orthogonalEdgeStyle;rounded=0;orthogonalLoop=1;jettySize=auto;html=1;entryX=0.5;entryY=0;entryDx=0;entryDy=0;strokeColor=#1BA1E2;strokeWidth=3;" parent="2" source="14" target="34" edge="1"><mxGeometry relative="1" as="geometry"><Array as="points"><mxPoint x="620" y="1320"/><mxPoint x="505" y="1320"/></Array></mxGeometry></mxCell><mxCell id="41" style="edgeStyle=orthogonalEdgeStyle;rounded=0;orthogonalLoop=1;jettySize=auto;html=1;entryX=0.5;entryY=0;entryDx=0;entryDy=0;strokeColor=#1BA1E2;strokeWidth=3;" parent="2" source="14" target="36" edge="1"><mxGeometry relative="1" as="geometry"><Array as="points"><mxPoint x="730" y="1320"/><mxPoint x="947" y="1320"/></Array></mxGeometry></mxCell><mxCell id="42" style="edgeStyle=orthogonalEdgeStyle;rounded=0;orthogonalLoop=1;jettySize=auto;html=1;strokeColor=#1BA1E2;strokeWidth=3;" parent="2" source="14" target="33" edge="1"><mxGeometry relative="1" as="geometry"><Array as="points"><mxPoint x="371" y="1170"/></Array></mxGeometry></mxCell><mxCell id="43" value="" style="rounded=0;whiteSpace=wrap;html=1;strokeColor=#60A917;strokeWidth=3;" vertex="1" parent="2"><mxGeometry x="270" y="590" width="870" height="250" as="geometry"/></mxCell><mxCell id="44" value="HttpGetClient" style="rounded=1;whiteSpace=wrap;html=1;strokeWidth=3;strokeColor=#6A00FF;" vertex="1" parent="2"><mxGeometry x="490" y="630" width="110" height="60" as="geometry"/></mxCell><mxCell id="46" style="edgeStyle=orthogonalEdgeStyle;rounded=0;orthogonalLoop=1;jettySize=auto;html=1;entryX=0.5;entryY=0;entryDx=0;entryDy=0;fillColor=#1ba1e2;strokeColor=#1BA1E2;strokeWidth=3;dashed=1;" edge="1" parent="2" source="45" target="5"><mxGeometry relative="1" as="geometry"/></mxCell><mxCell id="47" style="edgeStyle=orthogonalEdgeStyle;rounded=0;orthogonalLoop=1;jettySize=auto;html=1;entryX=0.5;entryY=1;entryDx=0;entryDy=0;strokeColor=#1BA1E2;strokeWidth=3;" edge="1" parent="2" source="45" target="44"><mxGeometry relative="1" as="geometry"/></mxCell><mxCell id="45" value="FacebookApi" style="rounded=1;whiteSpace=wrap;html=1;strokeWidth=3;strokeColor=#1BA1E2;" vertex="1" parent="2"><mxGeometry x="490" y="740" width="110" height="60" as="geometry"/></mxCell><mxCell id="48" value="Infra" style="text;html=1;strokeColor=none;fillColor=none;align=center;verticalAlign=middle;whiteSpace=wrap;rounded=0;strokeWidth=3;" vertex="1" parent="2"><mxGeometry x="1080" y="555" width="60" height="30" as="geometry"/></mxCell></root></mxGraphModel></diagram></mxfile>